<mxfile host="app.diagrams.net" modified="2024-04-25T10:47:52.487Z" agent="Mozilla/5.0 (Windows NT 10.0; Win64; x64) AppleWebKit/537.36 (KHTML, like Gecko) Chrome/124.0.0.0 Safari/537.36 Edg/124.0.0.0" etag="4kur6M78Wg5IFznwMfTa" version="24.3.0" type="github">
  <diagram name="PÃ¡gina-1" id="A3Rv-VP0xFsbPCGKAqn1">
    <mxGraphModel dx="1386" dy="785" grid="1" gridSize="10" guides="1" tooltips="1" connect="1" arrows="1" fold="1" page="1" pageScale="1" pageWidth="827" pageHeight="1169" math="0" shadow="0">
      <root>
        <mxCell id="0" />
        <mxCell id="1" parent="0" />
        <mxCell id="rj8YAMBqru2rKJpp8CeU-1" value="Imagem" style="whiteSpace=wrap;html=1;aspect=fixed;" vertex="1" parent="1">
          <mxGeometry x="20" y="20" width="100" height="100" as="geometry" />
        </mxCell>
        <mxCell id="rj8YAMBqru2rKJpp8CeU-2" value="Inicio" style="rounded=1;whiteSpace=wrap;html=1;" vertex="1" parent="1">
          <mxGeometry x="160" y="30" width="100" height="40" as="geometry" />
        </mxCell>
        <mxCell id="rj8YAMBqru2rKJpp8CeU-3" value="Sobre" style="rounded=1;whiteSpace=wrap;html=1;" vertex="1" parent="1">
          <mxGeometry x="290" y="30" width="100" height="40" as="geometry" />
        </mxCell>
        <mxCell id="rj8YAMBqru2rKJpp8CeU-4" value="Tecnologias" style="rounded=1;whiteSpace=wrap;html=1;" vertex="1" parent="1">
          <mxGeometry x="430" y="30" width="100" height="40" as="geometry" />
        </mxCell>
        <mxCell id="rj8YAMBqru2rKJpp8CeU-5" value="Projetos" style="rounded=1;whiteSpace=wrap;html=1;" vertex="1" parent="1">
          <mxGeometry x="570" y="30" width="100" height="40" as="geometry" />
        </mxCell>
        <mxCell id="rj8YAMBqru2rKJpp8CeU-6" value="Contato" style="rounded=1;whiteSpace=wrap;html=1;" vertex="1" parent="1">
          <mxGeometry x="700" y="20" width="120" height="60" as="geometry" />
        </mxCell>
        <mxCell id="rj8YAMBqru2rKJpp8CeU-7" value="Imagem" style="rounded=1;whiteSpace=wrap;html=1;rotation=90;" vertex="1" parent="1">
          <mxGeometry x="570" y="220" width="270" height="130" as="geometry" />
        </mxCell>
        <mxCell id="rj8YAMBqru2rKJpp8CeU-8" value="Texto" style="rounded=0;whiteSpace=wrap;html=1;" vertex="1" parent="1">
          <mxGeometry x="190" y="170" width="380" height="180" as="geometry" />
        </mxCell>
        <mxCell id="rj8YAMBqru2rKJpp8CeU-9" value="Contato" style="rounded=1;whiteSpace=wrap;html=1;" vertex="1" parent="1">
          <mxGeometry x="190" y="380" width="180" height="60" as="geometry" />
        </mxCell>
        <mxCell id="rj8YAMBqru2rKJpp8CeU-10" value="Especialidades" style="whiteSpace=wrap;html=1;aspect=fixed;" vertex="1" parent="1">
          <mxGeometry x="226" y="480" width="375" height="375" as="geometry" />
        </mxCell>
        <mxCell id="rj8YAMBqru2rKJpp8CeU-11" value="Curiosidades" style="rounded=0;whiteSpace=wrap;html=1;" vertex="1" parent="1">
          <mxGeometry x="219" y="890" width="390" height="90" as="geometry" />
        </mxCell>
        <mxCell id="rj8YAMBqru2rKJpp8CeU-12" value="Saiba mais" style="whiteSpace=wrap;html=1;aspect=fixed;" vertex="1" parent="1">
          <mxGeometry x="344" y="1000" width="140" height="140" as="geometry" />
        </mxCell>
      </root>
    </mxGraphModel>
  </diagram>
</mxfile>
